<?xml version="1.0" standalone="no"?>
<!DOCTYPE svg PUBLIC "-//W3C//DTD SVG 20010904//EN"
 "http://www.w3.org/TR/2001/REC-SVG-20010904/DTD/svg10.dtd">
<svg version="1.0" xmlns="http://www.w3.org/2000/svg"
 width="625.000000pt" height="625.000000pt" viewBox="0 0 625.000000 625.000000"
 preserveAspectRatio="xMidYMid meet">
<metadata>
Created by potrace 1.11, written by Peter Selinger 2001-2013
</metadata>
<g transform="translate(0.000000,625.000000) scale(0.100000,-0.100000)"
fill="#000000" stroke="none">
<path d="M873 5735 c-86 -24 -154 -64 -224 -134 -36 -36 -78 -90 -93 -118 -60
-119 -56 34 -56 -2363 0 -2390 -3 -2245 55 -2360 36 -71 134 -171 203 -208
125 -66 -48 -62 2372 -62 2420 0 2247 -4 2372 62 69 37 167 137 203 208 58
115 55 -30 55 2360 0 2390 3 2245 -55 2360 -36 71 -134 171 -203 208 -125 67
48 62 -2377 61 -1860 0 -2208 -2 -2252 -14z m3887 -125 c33 -18 47 -97 110
-590 34 -261 63 -483 66 -492 9 -29 32 -21 89 33 40 37 67 77 104 152 46 92
52 111 57 190 5 58 2 113 -6 159 -16 82 -9 101 39 106 25 3 38 -3 59 -26 35
-38 182 -284 182 -306 0 -15 -958 -988 -991 -1006 -30 -17 -48 11 -59 90 -24
186 -82 643 -104 818 -30 250 -32 252 -124 156 -148 -153 -210 -330 -147 -422
14 -20 25 -44 25 -52 0 -21 -20 -40 -40 -40 -26 0 -99 53 -187 137 -70 66 -82
82 -76 101 8 33 143 172 377 390 109 102 251 245 315 316 146 165 272 296 283
296 5 0 18 -5 28 -10z m-1550 -1740 c233 -38 373 -86 634 -216 93 -46 181 -84
196 -84 18 0 51 17 89 46 63 47 95 53 114 23 21 -33 -5 -66 -159 -204 -86 -77
-233 -222 -326 -323 -94 -100 -181 -185 -194 -188 -54 -14 -58 28 -9 106 39
61 42 76 18 102 -21 24 -79 23 -118 -1 -40 -24 -189 -164 -216 -202 -26 -36
-20 -67 18 -102 16 -14 46 -40 67 -60 l40 -34 -18 -28 c-10 -15 -36 -35 -59
-45 -64 -28 -205 -61 -246 -58 -32 3 -36 6 -39 35 -3 27 2 34 27 47 16 9 40
16 51 16 65 0 77 50 36 148 -102 246 -169 563 -183 859 -8 171 -2 183 90 183
34 0 118 -9 187 -20z m-1010 -859 c16 -31 13 -40 -43 -99 -67 -72 -87 -101
-87 -128 0 -16 52 -69 188 -190 103 -92 231 -216 285 -275 123 -137 125 -137
256 -44 49 36 94 65 99 65 18 0 34 -30 28 -53 -3 -13 -75 -87 -159 -165 -84
-78 -254 -247 -377 -377 -124 -131 -231 -235 -240 -235 -25 0 -43 25 -35 49 3
11 33 54 66 97 86 112 86 115 -71 233 l-125 95 -3 -37 c-2 -21 9 -124 24 -230
15 -105 27 -228 28 -272 l1 -80 -45 -6 c-25 -4 -161 -2 -302 4 -280 11 -319 7
-298 -33 14 -26 90 -77 141 -95 23 -8 69 -15 103 -15 51 0 75 6 134 35 58 29
76 34 92 25 11 -6 20 -18 20 -28 0 -9 -62 -78 -138 -152 -76 -74 -167 -171
-202 -214 -81 -99 -113 -124 -135 -106 -25 21 -18 51 31 129 31 50 44 80 40
95 -9 36 -96 153 -214 287 -158 180 -253 262 -334 288 -49 16 -71 8 -138 -49
-30 -25 -63 -50 -73 -53 -28 -10 -57 10 -57 40 0 21 42 68 203 229 184 184
207 204 251 215 68 17 299 6 531 -25 105 -14 191 -26 193 -26 7 0 0 95 -12
165 -31 179 -68 497 -61 533 5 29 31 62 123 157 65 66 147 153 183 193 71 77
108 92 129 53z"/>
<path d="M3118 3264 c-20 -19 5 -162 38 -226 l15 -29 30 18 c47 28 194 182
183 193 -24 24 -250 61 -266 44z"/>
</g>
</svg>
